{
  "accessors": [
    {
      "bufferView": 2,
      "componentType": 5126,
      "count": 1107,
      "max": [
        2.4585399627685547,
        3.667710065841675,
        8.403160095214844
      ],
      "min": [
        -6.353610038757324,
        -3.667710065841675,
        0.0
      ],
      "type": "VEC3"
    },
    {
      "bufferView": 2,
      "byteOffset": 13284,
      "componentType": 5126,
      "count": 1107,
      "max": [
        0.9997795224189758,
        1.0,
        0.9998652338981628
      ],
      "min": [
        -0.9999944567680359,
        -1.0,
        -1.0
      ],
      "type": "VEC3"
    },
    {
      "bufferView": 1,
      "componentType": 5126,
      "count": 1107,
      "max": [
        0.9962800145149231,
        0.9945300221443176
      ],
      "min": [
        0.0035600000992417336,
        0.003060000017285347
      ],
      "type": "VEC2"
    },
    {
      "bufferView": 0,
      "componentType": 5125,
      "count": 3528,
      "type": "SCALAR"
    },
    {
      "bufferView": 2,
      "byteOffset": 26568,
      "componentType": 5126,
      "count": 81,
      "max": [
        2.1857399940490723,
        2.6697299480438232,
        7.8055500984191895
      ],
      "min": [
        1.4985899925231934,
        -2.6697299480438232,
        3.4742801189422607
      ],
      "type": "VEC3"
    },
    {
      "bufferView": 2,
      "byteOffset": 27540,
      "componentType": 5126,
      "count": 81,
      "max": [
        0.9995609521865845,
        0.20063650608062744,
        0.275375097990036
      ],
      "min": [
        0.9401673674583435,
        -0.20063650608062744,
        -0.21918711066246033
      ],
      "type": "VEC3"
    },
    {
      "bufferView": 1,
      "byteOffset": 8856,
      "componentType": 5126,
      "count": 81,
      "max": [
        1.0,
        1.0
      ],
      "min": [
        0.0,
        0.0
      ],
      "type": "VEC2"
    },
    {
      "bufferView": 0,
      "byteOffset": 14112,
      "componentType": 5125,
      "count": 384,
      "type": "SCALAR"
    },
    {
      "bufferView": 2,
      "byteOffset": 28512,
      "componentType": 5126,
      "count": 2583,
      "max": [
        5.555560111999512,
        3.636359930038452,
        1.5504499673843384
      ],
      "min": [
        -3.432499885559082,
        -5.111189842224121,
        0.0
      ],
      "type": "VEC3"
    },
    {
      "bufferView": 2,
      "byteOffset": 59508,
      "componentType": 5126,
      "count": 2583,
      "max": [
        1.0,
        1.0,
        0.9997103810310364
      ],
      "min": [
        -0.9991987347602844,
        -1.0,
        -1.0
      ],
      "type": "VEC3"
    },
    {
      "bufferView": 1,
      "byteOffset": 9504,
      "componentType": 5126,
      "count": 2583,
      "max": [
        0.9932799935340881,
        0.9861099720001221
      ],
      "min": [
        0.006719999946653843,
        0.006719999946653843
      ],
      "type": "VEC2"
    },
    {
      "bufferView": 0,
      "byteOffset": 15648,
      "componentType": 5125,
      "count": 6240,
      "type": "SCALAR"
    }
  ],
  "asset": {
    "extras": {
      "author": "maxdragonn (https://sketchfab.com/maxdragon)",
      "license": "CC-BY-4.0 (http://creativecommons.org/licenses/by/4.0/)",
      "source": "https://sketchfab.com/3d-models/ibm-3278-terminal-b0470478089a4462afb4d5c4dd827b22",
      "title": "IBM 3278 terminal"
    },
    "generator": "Sketchfab-12.67.0",
    "version": "2.0"
  },
  "bufferViews": [
    {
      "buffer": 0,
      "byteLength": 40608,
      "name": "floatBufferViews",
      "target": 34963
    },
    {
      "buffer": 0,
      "byteLength": 30168,
      "byteOffset": 40608,
      "byteStride": 8,
      "name": "floatBufferViews",
      "target": 34962
    },
    {
      "buffer": 0,
      "byteLength": 90504,
      "byteOffset": 70776,
      "byteStride": 12,
      "name": "floatBufferViews",
      "target": 34962
    }
  ],
  "buffers": [
    {
      "byteLength": 161280,
      "uri": "scene.bin"
    }
  ],
  "images": [
    {
      "uri": "textures/ibm_3278_baseColor.png"
    },
    {
      "uri": "textures/display_baseColor.png"
    },
    {
      "uri": "textures/display_emissive.png"
    },
    {
      "uri": "textures/ibm_3278_keyboard_baseColor.png"
    }
  ],
  "materials": [
    {
      "doubleSided": true,
      "name": "ibm_3278",
      "pbrMetallicRoughness": {
        "baseColorTexture": {
          "index": 0
        },
        "metallicFactor": 0.0
      }
    },
    {
      "doubleSided": true,
      "emissiveFactor": [
        0.13870395028850424,
        0.13870395028850424,
        0.13870395028850424
      ],
      "emissiveTexture": {
        "index": 2
      },
      "name": "display",
      "pbrMetallicRoughness": {
        "baseColorTexture": {
          "index": 1
        },
        "metallicFactor": 0.0,
        "roughnessFactor": 0.11666484261471766
      }
    },
    {
      "doubleSided": true,
      "name": "ibm_3278_keyboard",
      "pbrMetallicRoughness": {
        "baseColorTexture": {
          "index": 3
        },
        "metallicFactor": 0.0
      }
    }
  ],
  "meshes": [
    {
      "name": "ibm_3278_0",
      "primitives": [
        {
          "attributes": {
            "NORMAL": 1,
            "POSITION": 0,
            "TEXCOORD_0": 2
          },
          "indices": 3,
          "material": 0,
          "mode": 4
        }
      ]
    },
    {
      "name": "ibm_3278_1",
      "primitives": [
        {
          "attributes": {
            "NORMAL": 5,
            "POSITION": 4,
            "TEXCOORD_0": 6
          },
          "indices": 7,
          "material": 1,
          "mode": 4
        }
      ]
    },
    {
      "name": "ibm_3278_2",
      "primitives": [
        {
          "attributes": {
            "NORMAL": 9,
            "POSITION": 8,
            "TEXCOORD_0": 10
          },
          "indices": 11,
          "material": 2,
          "mode": 4
        }
      ]
    }
  ],
  "nodes": [
    {
      "children": [
        1
      ],
      "matrix": [
        1.0,
        0.0,
        0.0,
        0.0,
        0.0,
        2.220446049250313e-16,
        -1.0,
        0.0,
        0.0,
        1.0,
        2.220446049250313e-16,
        0.0,
        0.0,
        0.0,
        0.0,
        1.0
      ],
      "name": "Sketchfab_model"
    },
    {
      "children": [
        2,
        4
      ],
      "name": "Root"
    },
    {
      "children": [
        3
      ],
      "matrix": [
        -0.29086000000000006,
        0.9551700000000001,
        -0.05519000000000001,
        0.0,
        -0.7711,
        -0.19988000000000003,
        0.6045200000000001,
        0.0,
        0.5663900000000001,
        0.21839000000000003,
        0.7946700000000001,
        0.0,
        4.076250000000001,
        1.00545,
        5.903860000000001,
        1.0
      ],
      "name": "Lamp"
    },
    {
      "name": "Lamp"
    },
    {
      "children": [
        5,
        6,
        7
      ],
      "matrix": [
        3.2076000000000002,
        0.0,
        0.0,
        0.0,
        0.0,
        3.2076000000000002,
        0.0,
        0.0,
        0.0,
        0.0,
        3.2076000000000002,
        0.0,
        0.0,
        0.0,
        0.0,
        1.0
      ],
      "name": "ibm_3278"
    },
    {
      "mesh": 0,
      "name": "ibm_3278_0"
    },
    {
      "mesh": 1,
      "name": "ibm_3278_1"
    },
    {
      "mesh": 2,
      "name": "ibm_3278_2"
    }
  ],
  "samplers": [
    {
      "magFilter": 9729,
      "minFilter": 9987,
      "wrapS": 10497,
      "wrapT": 10497
    }
  ],
  "scene": 0,
  "scenes": [
    {
      "name": "Sketchfab_Scene",
      "nodes": [
        0
      ]
    }
  ],
  "textures": [
    {
      "sampler": 0,
      "source": 0
    },
    {
      "sampler": 0,
      "source": 1
    },
    {
      "sampler": 0,
      "source": 2
    },
    {
      "sampler": 0,
      "source": 3
    }
  ]
}
